<svg xmlns="http://www.w3.org/2000/svg" viewBox="0 0 163.96 163.96"><defs><style>.cls-1{fill:#fff;}</style></defs><title>Foc Monochrome Dark210118 Totem Delivery Assets SVG</title><g id="Layer_2" data-name="Layer 2"><g id="Asset_Bank" data-name="Asset Bank"><rect width="163.96" height="163.96"/><path class="cls-1" d="M124.82,32.12,96.76,50.05a42.2,42.2,0,0,0-14.68-2.63h-.2a42.22,42.22,0,0,0-14.7,2.63l-28-17.93,0,48.66V88l1.48,1.46L82,130.81l3-3,39.84-39.84V80.78ZM44.16,70l0-28.65L61.66,52.49c-.25.15-.53.28-.78.46a5.29,5.29,0,0,0-.79.45c-.6.35-1.18.71-1.76,1.11a5.41,5.41,0,0,0-.86.58c-.58.38-1.11.78-1.66,1.21a5.51,5.51,0,0,0-.63.5c-.56.46-1.11.91-1.67,1.39a5.49,5.49,0,0,0-.65.63,20.68,20.68,0,0,0-1.59,1.51.94.94,0,0,0-.25.28c-.61.61-1.19,1.26-1.74,1.92S48,64,47.44,64.82a2.11,2.11,0,0,0-.21.31c-.47.6-.9,1.26-1.31,1.89-.12.17-.25.38-.35.55-.45.71-.88,1.44-1.31,2.2A1.24,1.24,0,0,0,44.16,70Zm4.16,20a37.93,37.93,0,0,1,30.53,30.54Zm36.79,30.54A37.87,37.87,0,0,1,115.62,90ZM82,112.76A43,43,0,0,0,44.49,84.47c.12-.89.3-1.74.5-2.6s.35-1.46.58-2.2.48-1.56.78-2.31a14.47,14.47,0,0,1,.76-1.9c0-.15.12-.32.2-.5a20.81,20.81,0,0,1,1-2.07,17.49,17.49,0,0,1,.93-1.69c.3-.53.63-1,1-1.56s.63-1,.95-1.41.51-.68.76-1a8.53,8.53,0,0,1,.68-.83c.25-.33.53-.66.81-1s.83-.91,1.28-1.36a2.09,2.09,0,0,1,.21-.23c.37-.4.8-.8,1.23-1.18a12.19,12.19,0,0,1,1.14-1,.87.87,0,0,1,.17-.16c.48-.43,1-.83,1.52-1.23.37-.3.78-.58,1.18-.86a36.88,36.88,0,0,1,7.64-4.16,37.36,37.36,0,0,1,14.07-2.72h.2a37.36,37.36,0,0,1,19.22,5.29,20.67,20.67,0,0,1,1.76,1.11.56.56,0,0,1,.25.18A14.82,14.82,0,0,1,105,60.23c.3.23.6.46.91.74a11.19,11.19,0,0,1,1.08.9,6.44,6.44,0,0,1,.56.48c.52.48,1,1,1.53,1.49l.15.15a23.73,23.73,0,0,1,1.59,1.77s.1.07.1.12a22.45,22.45,0,0,1,1.52,1.89.43.43,0,0,1,.07.1,19.53,19.53,0,0,1,1.44,2.1c.4.58.76,1.18,1.11,1.81.12.23.25.46.38.68.32.61.65,1.24.93,1.89a.46.46,0,0,1,.1.21,18.73,18.73,0,0,1,.88,2.11,1.62,1.62,0,0,1,.13.33,12.3,12.3,0,0,1,.58,1.64c.23.61.4,1.24.58,1.87s.28,1,.38,1.53c.17.81.35,1.62.45,2.43A42.91,42.91,0,0,0,82,112.76ZM119.78,70a.75.75,0,0,0-.1-.2c-.48-.86-1-1.69-1.49-2.5v0c-.53-.83-1.08-1.64-1.66-2.42a44.57,44.57,0,0,0-3.86-4.49,2.89,2.89,0,0,0-.35-.35c-.61-.63-1.24-1.23-1.9-1.79a20.35,20.35,0,0,0-1.66-1.39,3.74,3.74,0,0,0-.63-.5,20.15,20.15,0,0,0-1.66-1.21,4.64,4.64,0,0,0-.86-.58,19.35,19.35,0,0,0-1.77-1.11,4.68,4.68,0,0,0-.83-.48c-.25-.15-.48-.3-.73-.43l17.5-11.17Z"/></g></g></svg>