<svg xmlns="http://www.w3.org/2000/svg" viewBox="0 0 163.96 163.96"><defs><style>.cls-1{fill:#fff;}</style></defs><title>Owl Monochrome Dark210118 Totem Delivery Assets SVG</title><g id="Layer_2" data-name="Layer 2"><g id="Asset_Bank" data-name="Asset Bank"><rect width="163.96" height="163.96"/><path class="cls-1" d="M113.42,57.88a12.36,12.36,0,0,0,7.36-11.28h-5a7.3,7.3,0,0,1-6.53,7.24,42.81,42.81,0,0,0-54.42,0,7.3,7.3,0,0,1-6.53-7.24h-5a12.36,12.36,0,0,0,7.36,11.28,42.87,42.87,0,1,0,62.84,0Zm-9.94-2A43,43,0,0,0,82,80,43,43,0,0,0,60.52,55.85a37.64,37.64,0,0,1,43,0ZM82,124.78A37.78,37.78,0,0,1,56.15,59.4,38,38,0,0,1,79.48,94.32h5A38,38,0,0,1,107.85,59.4,37.78,37.78,0,0,1,82,124.78Z"/></g></g></svg>