<svg xmlns="http://www.w3.org/2000/svg" viewBox="0 0 163.96 163.96"><defs><style>.cls-1{fill:#fff;}</style></defs><title>Wolf Monochrome Dark210118 Totem Delivery Assets SVG</title><g id="Layer_2" data-name="Layer 2"><g id="Asset_Bank" data-name="Asset Bank"><rect width="163.96" height="163.96"/><path class="cls-1" d="M119.84,74l0,0-.8-1.34V21.76L96,53.61a42.9,42.9,0,0,0-28.1,0L44.88,21.76V72.57l-.81,1.34.06,0a42.65,42.65,0,0,0-5,20.12,11.24,11.24,0,0,0,0,1.18l.16,1.85,1.81.39a37.63,37.63,0,0,1,29.66,36l0,2,1.92.43a42.36,42.36,0,0,0,18.48,0l1.92-.43,0-2a37.64,37.64,0,0,1,29.66-36l1.81-.39.16-1.85a11.24,11.24,0,0,0,0-1.18A42.72,42.72,0,0,0,119.84,74ZM114,37.33V65.62c-.2-.23-.43-.43-.64-.66-.58-.63-1.18-1.24-1.8-1.84-.35-.33-.7-.66-1.06-1-.63-.56-1.28-1.1-1.94-1.62-.36-.29-.71-.58-1.08-.85-.77-.57-1.56-1.11-2.36-1.63l-.84-.55c-1.09-.67-2.22-1.3-3.38-1.87l-.1-.06ZM96,58.94q1.36.56,2.67,1.2c.29.14.57.31.85.46.58.3,1.16.61,1.73.95.32.19.64.41,1,.61.51.32,1,.64,1.49,1s.66.48,1,.72.91.7,1.35,1.06l1,.82c.42.37.83.75,1.24,1.14l.9.9c.39.4.76.81,1.13,1.23s.57.64.84,1,.7.88,1,1.33.51.66.75,1c.09.11.16.24.24.36L82,96.31,50.8,72.69c.08-.12.15-.24.23-.35.25-.35.51-.69.77-1s.68-.89,1-1.32.56-.65.84-1,.74-.83,1.13-1.23l.91-.9c.4-.39.81-.76,1.22-1.13s.64-.56,1-.83.87-.7,1.32-1,.67-.51,1-.75,1-.64,1.43-.94.68-.45,1-.66c.52-.31,1-.6,1.59-.88l1-.53c.75-.37,1.51-.7,2.28-1l.39-.17A37.81,37.81,0,0,1,96,58.94ZM49.92,37.33,63.13,55.56l-.11.06c-1.16.57-2.28,1.2-3.37,1.87-.3.18-.59.39-.88.58-.79.51-1.57,1-2.32,1.59-.38.28-.74.58-1.1.87-.66.52-1.3,1-1.92,1.61l-1.07,1c-.62.6-1.21,1.21-1.8,1.84-.2.22-.44.43-.64.66Zm38.32,94a37.58,37.58,0,0,1-12.52,0A42.65,42.65,0,0,0,44.16,93a37.69,37.69,0,0,1,4-16L82,102.63,115.77,77a37.69,37.69,0,0,1,4,16A42.66,42.66,0,0,0,88.24,131.37Z"/></g></g></svg>