<!-- Generated by IcoMoon.io -->
<svg version="1.1" xmlns="http://www.w3.org/2000/svg" width="32" height="32" viewBox="0 0 32 32">
<title>account</title>
<path fill="#909090" d="M2.353 11.013h2.72c1.002 0 1.813 0.812 1.813 1.813v13.6c0 1.002-0.812 1.813-1.813 1.813h-2.72c-1.002 0-1.813-0.812-1.813-1.813v-13.6c0-1.002 0.812-1.813 1.813-1.813z"></path>
<path fill="#636363" d="M10.513 5.573h2.72c1.002 0 1.813 0.812 1.813 1.813v19.041c0 1.002-0.812 1.813-1.813 1.813h-2.72c-1.002 0-1.813-0.812-1.813-1.813v-19.041c0-1.002 0.812-1.813 1.813-1.813z"></path>
<path fill="#909090" d="M18.673 16.453h2.72c1.002 0 1.813 0.812 1.813 1.813v8.16c0 1.002-0.812 1.813-1.813 1.813h-2.72c-1.002 0-1.813-0.812-1.813-1.813v-8.16c0-1.002 0.812-1.813 1.813-1.813z"></path>
<path fill="#636363" d="M26.834 1.946h2.72c1.002 0 1.813 0.812 1.813 1.813v22.667c0 1.002-0.812 1.813-1.813 1.813h-2.72c-1.002 0-1.813-0.812-1.813-1.813v-22.667c0-1.002 0.812-1.813 1.813-1.813z"></path>
</svg>
