<!-- Generated by IcoMoon.io -->
<svg version="1.1" xmlns="http://www.w3.org/2000/svg" width="32" height="32" viewBox="0 0 32 32">
<title>alert</title>
<path fill="#ffc107" d="M23.75 9.542c-0.331 0-0.661-0.127-0.913-0.378-0.505-0.505-0.505-1.321 0-1.826l2.74-2.74c0.505-0.505 1.321-0.505 1.826 0s0.505 1.321 0 1.826l-2.74 2.74c-0.252 0.252-0.583 0.378-0.913 0.378z"></path>
<path fill="#ffc107" d="M30.208 17.292h-1.615c-0.714 0-1.292-0.579-1.292-1.292s0.577-1.292 1.292-1.292h1.615c0.714 0 1.292 0.579 1.292 1.292s-0.577 1.292-1.292 1.292z"></path>
<path fill="#f44336" d="M24.073 25.688h-16.146c-0.535 0-0.969-0.434-0.969-0.969v-6.135c0-4.986 4.057-9.042 9.042-9.042s9.042 4.056 9.042 9.042v6.135c0 0.535-0.434 0.969-0.969 0.969z"></path>
<path fill="#fff" d="M10.833 19.875c-0.714 0-1.292-0.579-1.292-1.292 0-3.561 2.897-6.458 6.458-6.458 0.714 0 1.292 0.579 1.292 1.292s-0.577 1.292-1.292 1.292c-2.136 0-3.875 1.739-3.875 3.875 0 0.713-0.577 1.292-1.292 1.292z"></path>
<path fill="#ffc107" d="M16 6.958c-0.714 0-1.292-0.579-1.292-1.292v-3.875c0-0.713 0.577-1.292 1.292-1.292s1.292 0.579 1.292 1.292v3.875c0 0.713-0.577 1.292-1.292 1.292z"></path>
<path fill="#ffc107" d="M8.25 9.542c-0.331 0-0.661-0.127-0.913-0.378l-2.74-2.74c-0.505-0.505-0.505-1.321 0-1.826s1.321-0.505 1.826 0l2.74 2.74c0.505 0.505 0.505 1.321 0 1.826-0.252 0.252-0.583 0.378-0.913 0.378z"></path>
<path fill="#ffc107" d="M3.083 17.292h-1.292c-0.714 0-1.292-0.579-1.292-1.292s0.577-1.292 1.292-1.292h1.292c0.714 0 1.292 0.579 1.292 1.292s-0.577 1.292-1.292 1.292z"></path>
<path fill="#607d8b" d="M29.24 31.5h-26.479c-1.246 0-2.26-1.014-2.26-2.26v-3.229c0-1.246 1.014-2.26 2.26-2.26h26.479c1.246 0 2.26 1.014 2.26 2.26v3.229c0 1.246-1.014 2.26-2.26 2.26z"></path>
<path fill="#d43a2f" d="M16 9.542c-4.985 0-9.042 4.056-9.042 9.042v5.167h9.042v-9.042c-2.136 0-3.875 1.739-3.875 3.875 0 0.713-0.577 1.292-1.292 1.292s-1.292-0.579-1.292-1.292c0-3.561 2.897-6.458 6.458-6.458z"></path>
<path fill="#dedede" d="M16 12.125c-3.561 0-6.458 2.897-6.458 6.458 0 0.713 0.577 1.292 1.292 1.292s1.292-0.579 1.292-1.292c0-2.136 1.739-3.875 3.875-3.875z"></path>
<path fill="#dea806" d="M16 0.5c-0.714 0-1.292 0.579-1.292 1.292v3.875c0 0.713 0.577 1.292 1.292 1.292z"></path>
<path fill="#dea806" d="M5.51 4.219c-0.331 0-0.661 0.127-0.913 0.378-0.505 0.505-0.505 1.321 0 1.826l2.74 2.74c0.252 0.252 0.583 0.378 0.913 0.378s0.661-0.127 0.913-0.378c0.505-0.505 0.505-1.321 0-1.826l-2.74-2.74c-0.252-0.252-0.583-0.378-0.913-0.378z"></path>
<path fill="#dea806" d="M3.083 14.708h-1.292c-0.714 0-1.292 0.579-1.292 1.292s0.577 1.292 1.292 1.292h1.292c0.714 0 1.292-0.579 1.292-1.292s-0.577-1.292-1.292-1.292z"></path>
<path fill="#546d79" d="M16 23.75h-13.24c-1.246 0-2.26 1.014-2.26 2.26v3.229c0 1.246 1.014 2.26 2.26 2.26h13.24z"></path>
</svg>
