<!-- Generated by IcoMoon.io -->
<svg version="1.1" xmlns="http://www.w3.org/2000/svg" width="15" height="15" viewBox="0 0 32 32">
<title>close</title>
<path fill="#6D7075" opacity="0.6" d="M0.601 0.616c0.802-0.803 2.103-0.803 2.905-0.001v0l12.492 12.48 12.495-12.48c0.803-0.802 2.104-0.801 2.905 0.001 0.74 0.741 0.797 1.906 0.17 2.712l-0.171 0.193-12.492 12.478 12.492 12.479 0.171 0.193c0.627 0.806 0.571 1.971-0.17 2.712-0.802 0.803-2.103 0.803-2.905 0.001v0l-12.495-12.483-12.492 12.483c-0.803 0.802-2.104 0.801-2.905-0.001-0.74-0.741-0.797-1.906-0.17-2.712l0.171-0.193 12.491-12.479-12.491-12.478-0.171-0.193c-0.627-0.806-0.571-1.971 0.17-2.712z"></path>
</svg>
