<!-- Generated by IcoMoon.io -->
<svg version="1.1" xmlns="http://www.w3.org/2000/svg" width="32" height="32" viewBox="0 0 32 32">
<title>discord</title>
<path fill="#606b70" d="M26.74 5.56c-1.957-0.906-4.055-1.574-6.249-1.956-0.040-0.007-0.080 0.011-0.1 0.048-0.27 0.484-0.569 1.116-0.778 1.613-2.36-0.356-4.707-0.356-7.018 0-0.209-0.508-0.519-1.129-0.79-1.613-0.021-0.036-0.060-0.054-0.1-0.048-2.193 0.381-4.291 1.049-6.249 1.956-0.017 0.007-0.032 0.020-0.041 0.036-3.98 6.001-5.070 11.854-4.535 17.635 0.002 0.028 0.018 0.055 0.040 0.073 2.626 1.946 5.17 3.128 7.666 3.911 0.040 0.012 0.082-0.002 0.108-0.036 0.591-0.814 1.117-1.672 1.568-2.574 0.027-0.053 0.001-0.116-0.053-0.136-0.835-0.32-1.63-0.709-2.395-1.152-0.061-0.036-0.065-0.123-0.010-0.165 0.161-0.122 0.322-0.248 0.476-0.376 0.028-0.023 0.067-0.028 0.099-0.014 5.024 2.315 10.464 2.315 15.429 0 0.033-0.016 0.071-0.011 0.1 0.012 0.154 0.128 0.315 0.256 0.477 0.377 0.056 0.042 0.052 0.129-0.008 0.165-0.765 0.451-1.56 0.832-2.396 1.151-0.054 0.021-0.079 0.085-0.052 0.138 0.461 0.901 0.987 1.759 1.567 2.573 0.024 0.034 0.068 0.049 0.108 0.037 2.508-0.783 5.052-1.965 7.678-3.911 0.023-0.017 0.038-0.043 0.040-0.071 0.64-6.683-1.072-12.488-4.539-17.635-0.008-0.017-0.023-0.029-0.040-0.037zM11.010 19.71c-1.513 0-2.759-1.401-2.759-3.123s1.222-3.123 2.759-3.123c1.549 0 2.783 1.414 2.759 3.123 0 1.721-1.222 3.123-2.759 3.123zM21.211 19.71c-1.513 0-2.759-1.401-2.759-3.123s1.222-3.123 2.759-3.123c1.549 0 2.783 1.414 2.759 3.123 0 1.721-1.21 3.123-2.759 3.123z"></path>
</svg>
