<?xml version="1.0" encoding="UTF-8"?>
<svg width="115px" height="115px" viewBox="0 0  155 133" version="1.1" xmlns="http://www.w3.org/2000/svg" xmlns:xlink="http://www.w3.org/1999/xlink">
    <title>Icon_Spark_Animation</title>
    <defs>
        <path d="M129.764106,40.6168665 L89.694435,63.7643185 C87.0002869,65.3261639 85.3415723,68.2056438 85.3413767,71.3210998 L85.3413767,117.616004 C85.3371318,122.432493 81.4336269,126.334775 76.6198782,126.334775 L76.6198782,126.334775 C71.8073752,126.334775 67.9060707,122.431248 67.9060707,117.616004 L67.9060707,71.3210998 C67.9058706,68.2036338 66.2435892,65.3230515 63.5453215,63.7643185 L23.4756504,40.6168665 C19.3047612,38.2069428 17.8758324,32.870385 20.2839203,28.6968521 L20.2839203,28.6968521 C21.4390736,26.6932928 23.3425758,25.2311215 25.5754506,24.6321739 C27.8083255,24.0332263 30.1875572,24.3465947 32.1894579,25.5033041 L72.259129,48.6430608 C74.9539091,50.2052969 78.2781565,50.2052969 80.9729366,48.6430608 L121.042608,25.5033041 C125.209736,23.0997624 130.535126,24.5291716 132.940454,28.6968521 L132.940454,28.6968521 C135.351127,32.8663563 133.929415,38.2016731 129.764106,40.6168665 Z" id="path-1"></path>
        <filter x="-13.9%" y="-13.7%" width="127.8%" height="131.4%" filterUnits="objectBoundingBox" id="filter-2">
            <feOffset dx="0" dy="2" in="SourceAlpha" result="shadowOffsetOuter1"></feOffset>
            <feGaussianBlur stdDeviation="5" in="shadowOffsetOuter1" result="shadowBlurOuter1"></feGaussianBlur>
            <feColorMatrix values="0 0 0 0 0   0 0 0 0 0   0 0 0 0 0  0 0 0 0.1 0" type="matrix" in="shadowBlurOuter1"></feColorMatrix>
        </filter>
    </defs>
    <g id="Symbols" stroke="none" stroke-width="1" fill="none" fill-rule="evenodd">
        <g id="Popup_Waiting_For_Confirmation" transform="translate(-139.000000, -188.000000)" fill-rule="nonzero">
            <g id="Group" transform="translate(144.885892, 192.665225)">
                <rect id="Rectangle" fill="#E13461" opacity="0.3" x="60.114108" y="1.33477484" width="17" height="40" rx="8.5"></rect>
                <rect id="Rectangle" fill="#FFFFFF" opacity="0.3" x="60.114108" y="91.3347748" width="17" height="40" rx="8.5"></rect>
                <path d="M107.636003,68.6670639 C112.446662,68.6670639 116.346472,72.5668736 116.346472,77.3775327 L116.346472,100.185359 C116.346472,104.996018 112.446662,108.895828 107.636003,108.895828 C102.825344,108.895828 98.9255343,104.996018 98.9255343,100.185359 L98.9255343,77.3775327 C98.9255343,72.5668736 102.825344,68.6670639 107.636003,68.6670639 Z" id="Rectangle" fill="#8618F3" opacity="0.3" transform="translate(107.636003, 88.781446) rotate(-59.990000) translate(-107.636003, -88.781446) "></path>
                <path d="M29.6360031,23.6670639 C34.4466621,23.6670639 38.3464718,27.5668736 38.3464718,32.3775327 L38.3464718,55.1853591 C38.3464718,59.9960182 34.4466621,63.8958279 29.6360031,63.8958279 C24.825344,63.8958279 20.9255343,59.9960182 20.9255343,55.1853591 L20.9255343,32.3775327 C20.9255343,27.5668736 24.825344,23.6670639 29.6360031,23.6670639 Z" id="Rectangle" fill="#FFFFFF" opacity="0.3" transform="translate(29.636003, 43.781446) rotate(-59.990000) translate(-29.636003, -43.781446) "></path>
                <path d="M18.4835257,80.0668174 L41.3067213,80.0668174 C46.1173803,80.0668174 50.01719,83.9666271 50.01719,88.7772861 C50.01719,93.5879452 46.1173803,97.4877549 41.3067213,97.4877549 L18.4835257,97.4877549 C13.6728666,97.4877549 9.77305692,93.5879452 9.77305692,88.7772861 C9.77305692,83.9666271 13.6728666,80.0668174 18.4835257,80.0668174 Z" id="Rectangle" fill="#13C2A1" opacity="0.3" transform="translate(29.895123, 88.777286) rotate(-30.010000) translate(-29.895123, -88.777286) "></path>
                <path d="M96.4835257,35.0668174 L119.306721,35.0668174 C124.11738,35.0668174 128.01719,38.9666271 128.01719,43.7772861 C128.01719,48.5879452 124.11738,52.4877549 119.306721,52.4877549 L96.4835257,52.4877549 C91.6728666,52.4877549 87.7730569,48.5879452 87.7730569,43.7772861 C87.7730569,38.9666271 91.6728666,35.0668174 96.4835257,35.0668174 Z" id="Rectangle" fill="#FFFFFF" opacity="0.3" transform="translate(107.895123, 43.777286) rotate(-30.010000) translate(-107.895123, -43.777286) "></path>
                <g id="Path" transform="translate(76.614108, 75.334775) rotate(-37.000000) translate(-76.614108, -75.334775) ">
                    <use fill="black" fill-opacity="1" filter="url(#filter-2)" xlink:href="#path-1"></use>
                    <use fill="#FFFFFF" xlink:href="#path-1"></use>
                </g>
            </g>
        </g>
    </g>
</svg>