<!-- Generated by IcoMoon.io -->
<svg version="1.1" xmlns="http://www.w3.org/2000/svg" width="15" height="15" viewBox="0 0 1024 1024">
<g id="icomoon-ignore">
</g>
<path fill="#6D7075" d="M512 16c273.934 0 496 222.066 496 496s-222.066 496-496 496c-273.934 0-496-222.066-496-496s222.066-496 496-496zM512.441 398.982c-41.259 0-63.474 19.447-66.648 58.342l-0.398 10.13v282.131c0 21.449 5.735 38.086 17.203 49.909s28.082 17.737 49.842 17.737c21.76 0 38.227-5.913 49.401-17.737 9.312-9.853 14.743-23.048 16.295-39.587l0.465-10.323v-282.131c0-21.998-5.735-38.909-17.203-50.735s-27.789-17.737-48.96-17.737zM512.441 206.769c-24.702 0-43.668 5.363-56.899 16.087s-19.849 26.26-19.849 46.609c0 19.799 6.616 35.061 19.849 45.786s32.2 16.087 56.899 16.087c50.577 0 75.866-20.623 75.866-61.871 0-41.798-25.289-62.697-75.866-62.697z"></path>
</svg>
