<svg width="32" height="32" viewBox="0 0 32 32" fill="none" xmlns="http://www.w3.org/2000/svg">
<circle cx="16" cy="16" r="15.5" fill="#1F2641" stroke="url(#paint0_linear_2_109)"/>
<g clip-path="url(#clip0_2_109)">
<path d="M22 9.14288C22 9.446 21.8771 9.7367 21.6583 9.95103C21.4395 10.1654 21.1427 10.2858 20.8333 10.2858H19.6666C19.6662 10.5454 19.6203 10.803 19.5309 11.0474H20.8333C21.2468 11.048 21.6495 10.9184 21.9821 10.6776C21.9933 10.5482 22.0026 10.4182 22.0026 10.2858L22 9.14288Z" fill="white"/>
<path d="M21.9821 21.3219C21.8823 20.1819 21.3496 19.1201 20.4893 18.3463C19.629 17.5725 18.5037 17.143 17.3357 17.1426H16.1665C15.857 17.1426 15.5603 17.0222 15.3415 16.8079C15.1227 16.5936 14.9998 16.3029 14.9998 15.9997C14.9998 15.6966 15.1227 15.4059 15.3415 15.1916C15.5603 14.9773 15.857 14.8568 16.1665 14.8568H17.3332C18.5016 14.8573 19.6276 14.428 20.4885 13.6541C21.3494 12.8802 21.8824 11.818 21.9821 10.6776C21.6503 10.9179 21.2485 11.0475 20.8359 11.0474H19.5309C19.3704 11.4929 19.0729 11.8786 18.6793 12.1516C18.2857 12.4246 17.8154 12.5713 17.3332 12.5716H16.1665C15.2456 12.5825 14.3662 12.9485 13.7189 13.5903C13.0717 14.232 12.7087 15.0978 12.7087 16C12.7087 16.9021 13.0717 17.768 13.7189 18.4097C14.3662 19.0515 15.2456 19.4175 16.1665 19.4284H17.3332C17.9514 19.4304 18.5438 19.6719 18.9809 20.1001C19.4181 20.5283 19.6646 21.1086 19.6666 21.7142V24H22V21.7142C22 21.5818 21.9908 21.4513 21.9821 21.3219Z" fill="white"/>
<path d="M19.6666 8H16.1665C14.0006 8 11.9234 8.84283 10.3919 10.3431C8.86039 11.8433 8 13.8781 8 15.9997H8C7.99993 17.0503 8.21111 18.0906 8.62149 19.0613C9.03186 20.0319 9.63339 20.9139 10.3917 21.6568C11.15 22.3996 12.0503 22.989 13.0412 23.391C14.032 23.7931 15.094 24 16.1665 24H19.6666V21.7142H16.1665C15.4004 21.7142 14.6419 21.5664 13.9341 21.2792C13.2264 20.992 12.5833 20.5711 12.0417 20.0405C11.5 19.5098 11.0704 18.8798 10.7773 18.1865C10.4842 17.4932 10.3334 16.7502 10.3334 15.9997C10.3334 14.4843 10.948 13.0309 12.0419 11.9594C13.1358 10.8878 14.6194 10.2858 16.1665 10.2858H20.8333C20.9865 10.2858 21.1382 10.2562 21.2798 10.1988C21.4213 10.1414 21.5499 10.0572 21.6583 9.95104C21.7666 9.84491 21.8526 9.71892 21.9112 9.58026C21.9698 9.4416 22 9.29298 22 9.14289V8H19.6666Z" fill="white"/>
<path d="M19.665 21.7142H18.8978V24H19.665V21.7142Z" fill="white"/>
</g>
<defs>
<linearGradient id="paint0_linear_2_109" x1="-12.5" y1="-24" x2="29.5" y2="34.5" gradientUnits="userSpaceOnUse">
<stop stop-color="#F57E29"/>
<stop offset="1" stop-color="#5B223C"/>
</linearGradient>
<clipPath id="clip0_2_109">
<rect width="14" height="16" fill="white" transform="translate(8 8)"/>
</clipPath>
</defs>
</svg>
