<!-- Generated by IcoMoon.io -->
<svg version="1.1" xmlns="http://www.w3.org/2000/svg" width="32" height="32" viewBox="0 0 32 32">
<title>medium</title>
<path fill="#606b70" d="M8.526 9.979c3.93 0 7.116 3.186 7.116 7.116s-3.186 7.116-7.116 7.116c-3.93 0-7.116-3.186-7.116-7.116s3.186-7.116 7.116-7.116zM20.569 9.431c2.116 0 3.832 3.186 3.832 7.116s-1.716 7.116-3.832 7.116c-2.116 0-3.832-3.186-3.832-7.116s1.716-7.116 3.832-7.116zM27.138 9.979c0.614 0 1.149 1.346 1.43 3.34l0.068 0.534c0.041 0.365 0.074 0.749 0.098 1.146l0.029 0.606c0.011 0.308 0.017 0.623 0.017 0.943s-0.006 0.635-0.017 0.943l-0.029 0.606c-0.024 0.397-0.057 0.781-0.098 1.146l-0.068 0.534c-0.282 1.994-0.817 3.34-1.43 3.34s-1.149-1.346-1.43-3.34l-0.068-0.534c-0.041-0.365-0.074-0.749-0.098-1.146l-0.029-0.606c-0.007-0.205-0.012-0.413-0.015-0.624l-0.002-0.318c0-0.32 0.006-0.635 0.017-0.943l0.029-0.606c0.024-0.397 0.057-0.781 0.098-1.146l0.068-0.534c0.282-1.994 0.817-3.34 1.43-3.34z"></path>
</svg>
