<!-- Generated by IcoMoon.io -->
<svg version="1.1" xmlns="http://www.w3.org/2000/svg" width="32" height="32" viewBox="0 0 32 32">
<title>minus</title>
<path fill="#595959" d="M16 0.5c8.56 0 15.5 6.94 15.5 15.5s-6.94 15.5-15.5 15.5c-8.56 0-15.5-6.94-15.5-15.5s6.94-15.5 15.5-15.5zM16 2.050c-7.704 0-13.95 6.246-13.95 13.95s6.246 13.95 13.95 13.95c7.704 0 13.95-6.246 13.95-13.95s-6.246-13.95-13.95-13.95zM22.975 14.45c0.856 0 1.55 0.694 1.55 1.55 0 0.795-0.598 1.45-1.369 1.54l-0.181 0.010h-13.175c-0.856 0-1.55-0.694-1.55-1.55 0-0.795 0.598-1.45 1.369-1.54l0.181-0.010h13.175z"></path>
</svg>
