<?xml version="1.0" encoding="UTF-8"?>
<svg width="12px" height="12px" viewBox="0 0 12 12" version="1.1" xmlns="http://www.w3.org/2000/svg" xmlns:xlink="http://www.w3.org/1999/xlink">
    <title>Icon_External</title>
    <g id="Symbols" stroke="none" stroke-width="1" fill="none" fill-rule="evenodd">
        <g id="Icon_External" fill="#6D7075" fill-rule="nonzero">
            <path d="M3.5,0 C3.77614237,0 4,0.223857625 4,0.5 C4,0.745459889 3.82312484,0.94960837 3.58987563,0.991944331 L3.5,1 L2,1 C1.48716416,1 1.06449284,1.38604019 1.00672773,1.88337887 L1,2 L1,10 C1,10.5128358 1.38604019,10.9355072 1.88337887,10.9932723 L2,11 L10,11 C10.5128358,11 10.9355072,10.6139598 10.9932723,10.1166211 L11,10 L11,8.5 C11,8.22385763 11.2238576,8 11.5,8 C11.7454599,8 11.9496084,8.17687516 11.9919443,8.41012437 L12,8.5 L12,10 C12,11.0543618 11.1841222,11.9181651 10.1492623,11.9945143 L10,12 L2,12 C0.945638205,12 0.0818348781,11.1841222 0.00548573643,10.1492623 L0,10 L0,2 C0,0.945638205 0.815877791,0.0818348781 1.85073766,0.00548573643 L2,0 L3.5,0 Z M11.5,0 L11.5115408,0.000132376874 C11.5324012,0.0006109983 11.5532373,0.00238749635 11.5739178,0.00546187104 L11.5,0 C11.536097,0 11.5713007,0.00382515486 11.6052277,0.0110922303 C11.6204743,0.0143961337 11.6358347,0.0184480215 11.6510116,0.023241345 C11.6647369,0.0275580952 11.6780251,0.0324084547 11.6910366,0.0377922373 C11.7045389,0.0433514722 11.7182757,0.049749608 11.7317582,0.0568049675 C11.7440467,0.0632933417 11.7556825,0.0700193356 11.7670103,0.0771880058 C11.7788346,0.084609348 11.7906092,0.0927745354 11.8020925,0.101502609 C11.8157542,0.111920253 11.8288187,0.122939203 11.8412864,0.134588748 C11.845325,0.138356953 11.8494658,0.142358996 11.8535534,0.146446609 L11.8654113,0.15871357 C11.8770608,0.171181315 11.8880797,0.184245765 11.8984173,0.197856082 L11.8535534,0.146446609 C11.8803877,0.173280881 11.9035342,0.202406427 11.922993,0.233193482 C11.9299807,0.244317532 11.9367067,0.255953329 11.9429657,0.267872755 C11.9502504,0.281724313 11.9566485,0.295461137 11.9623894,0.3094049 C11.9675915,0.321974932 11.9724419,0.33526315 11.9767316,0.348800827 C11.981552,0.364165295 11.9856039,0.379525749 11.9889143,0.395012947 C11.9899978,0.399861393 11.9910104,0.404979165 11.9919443,0.410124368 L11.9948333,0.428095892 C11.9973429,0.445460977 11.9989382,0.462932754 11.9996194,0.480433489 L12,0.5 L12,5.5 C12,5.77614237 11.7761424,6 11.5,6 C11.2545401,6 11.0503916,5.82312484 11.0080557,5.58987563 L11,5.5 L11,1.706 L5.85355339,6.85355339 C5.65829124,7.04881554 5.34170876,7.04881554 5.14644661,6.85355339 C4.97288026,6.67998704 4.95359511,6.41056264 5.08859116,6.2156945 L5.14644661,6.14644661 L10.292,1 L6.5,1 C6.25454011,1 6.05039163,0.823124839 6.00805567,0.589875632 L6,0.5 C6,0.254540111 6.17687516,0.0503916296 6.41012437,0.00805566941 L6.5,0 L11.5,0 Z"></path>
        </g>
    </g>
</svg>