<!-- Generated by IcoMoon.io -->
<svg version="1.1" xmlns="http://www.w3.org/2000/svg" width="32" height="32" viewBox="0 0 32 32">
<title>rocket</title>
<path fill="#f6b44b" d="M13.8 25.208c-0.144 0.276-0.312 0.546-0.492 0.798-0.252 0.354-0.528 0.678-0.834 0.984-1.411 1.411-3.367 2.269-5.553 2.233-0.006-0.45 0.036-0.894 0.102-1.321-1.152 0.66-2.491 1.032-3.938 1.008-0.018-1.447 0.354-2.785 1.008-3.938-0.426 0.066-0.87 0.108-1.321 0.096-0.036-2.647 1.237-4.976 3.217-6.387 0.252-0.18 0.522-0.348 0.798-0.492-0.006 0.030-0.012 0.066-0.018 0.096 0.684 0.090 1.357 0.27 2.005 0.54 0.426 0.174 0.834 0.384 1.231 0.636 0.498 0.312 0.966 0.684 1.399 1.116s0.798 0.9 1.11 1.399c0.252 0.396 0.468 0.804 0.642 1.231 0.27 0.648 0.45 1.321 0.54 2.005 0.042 0.006 0.072 0 0.102-0.006z"></path>
<path fill="#ffd05c" d="M13.164 23.221c-0.282 1.063-0.834 2.035-1.627 2.827-0.87 0.87-1.957 1.453-3.139 1.705l0.366-2.377-2.401 1.369c-0.558 0.324-1.165 0.552-1.801 0.69 0.138-0.63 0.372-1.237 0.69-1.801l1.369-2.401-2.377 0.366c0.252-1.183 0.834-2.269 1.705-3.139 0.792-0.792 1.765-1.345 2.827-1.627 0.426 0.174 0.834 0.384 1.231 0.636 0.498 0.312 0.966 0.684 1.399 1.116s0.798 0.9 1.11 1.399c0.258 0.402 0.474 0.81 0.648 1.237z"></path>
<path fill="#41596b" d="M12.798 31.247c0.156-0.132 0.318-0.276 0.468-0.432 1.507-1.507 2.329-3.433 2.473-5.408 0.18-2.389-0.642-4.844-2.473-6.675s-4.28-2.653-6.675-2.473c-1.969 0.144-3.902 0.966-5.408 2.473-0.15 0.15-0.294 0.312-0.432 0.468 0.288-2.299 1.309-4.526 3.073-6.291 1.651-1.651 3.698-2.653 5.829-3.013 3.325-0.558 6.861 0.444 9.43 3.013 2.563 2.563 3.572 6.105 3.013 9.43-0.36 2.137-1.363 4.184-3.013 5.829-1.759 1.771-3.986 2.791-6.285 3.079z"></path>
<path fill="#334a5e" d="M22.102 22.345c-1.921 1.327-4.058 2.377-6.357 3.067 0.18-2.389-0.642-4.844-2.473-6.675s-4.28-2.653-6.675-2.473c0.69-2.305 1.741-4.442 3.067-6.357 3.325-0.558 6.861 0.444 9.43 3.013 2.557 2.557 3.566 6.099 3.007 9.424z"></path>
<path fill="#f2705b" d="M13.71 25.226c-0.156-1.135-0.546-2.239-1.183-3.235-0.312-0.498-0.684-0.966-1.117-1.399s-0.9-0.804-1.399-1.116c-0.996-0.636-2.101-1.026-3.235-1.183 1.789-8.602 8.59-15.373 17.216-17.108 1.411-0.282 2.869-0.432 4.37-0.432h2.887v2.887c0 1.495-0.15 2.959-0.432 4.37-1.735 8.626-8.506 15.427-17.108 17.216z"></path>
<path fill="#fff" d="M24.617 7.386c-1.885-1.885-4.94-1.885-6.825 0-0.942 0.942-1.417 2.179-1.411 3.416 0.006 1.231 0.474 2.467 1.411 3.404s2.167 1.411 3.398 1.417c1.243 0.006 2.479-0.468 3.422-1.417 1.891-1.879 1.891-4.934 0.006-6.819z"></path>
<path fill="#89d6f7" d="M24.419 10.796c0 1.774-1.438 3.211-3.211 3.211s-3.211-1.438-3.211-3.211c0-1.774 1.438-3.211 3.211-3.211s3.211 1.438 3.211 3.211z"></path>
<path fill="#41596b" d="M15.691 16.312v0 0c-3.211 1.129-6.729 4.646-7.851 7.852v0c3.205-1.129 6.723-4.64 7.851-7.852z"></path>
<path fill="#334a5e" d="M30.818 8.010l-6.825-6.825c1.411-0.282 2.869-0.432 4.37-0.432h2.887v2.887c0 1.495-0.15 2.959-0.432 4.37z"></path>
</svg>
