<!-- Generated by IcoMoon.io -->
<svg version="1.1" xmlns="http://www.w3.org/2000/svg" width="55" height="55" viewBox="0 0 1024 1024">
<title></title>
<g id="icomoon-ignore">
</g>
<path fill="#636363" d="M517.445 251.633c-4.89 0.343-5.356 0.604-5.952 3.315-1.039 4.733-6.602 12.265-10.156 13.75-7.48 3.123-7.258 1.357-7.258 57.874 0 43.164 0.218 50.673 1.477 51.092 2.44 0.814 8.983 7.7 9.769 10.276 0.819 2.691 3.43 5.588 6.528 7.247 4.367 2.337 26.77 0.586 26.77-2.092 0-0.497 1.037-0.909 2.304-0.916 9.464-0.059 9.989-3.725 9.987-69.839-0.003-58.168 0.187-56.732-7.903-59.822-4.462-1.705-9.508-6.505-9.508-9.047 0-2.547-2.278-2.808-16.059-1.838zM309.248 372.646c-4.844 0.517-5.678 0.924-5.96 2.906-0.179 1.267-0.755 2.304-1.28 2.304s-0.952 0.637-0.952 1.416c0 2.148-7.557 8.522-10.998 9.277-5.23 1.149-5.85 22.075-0.653 22.075 0.776 0 1.411 0.387 1.411 0.86 0 0.471 1.134 1.375 2.519 2.007 2.419 1.103 6.697 7.916 6.697 10.665 0 1.633 4.198 3.482 9.984 4.393 2.394 0.379 4.352 1.106 4.352 1.62s0.489 0.934 1.088 0.934c3.267 0 12.623 5.681 14.446 8.771 2.079 3.52 6.815 5.847 14.418 7.084 2.112 0.343 3.84 1.062 3.84 1.6s0.579 0.978 1.283 0.978c1.556 0 9.513 5.652 13.092 9.298 1.644 1.674 5.21 3.341 9.725 4.547 3.922 1.044 7.363 2.161 7.644 2.476 0.282 0.317 1.894 1.324 3.584 2.235 1.69 0.914 3.994 3.546 5.12 5.852 1.362 2.788 2.734 4.204 4.096 4.227 2.54 0.046 20.291 5.194 20.992 6.088 0.282 0.361 1.797 1.472 3.369 2.473s3.612 3.405 4.536 5.343c1.828 3.83 2.194 4.024 10.527 5.591 6.804 1.28 14.336 4.042 14.336 5.258 0 0.486 0.655 0.886 1.459 0.886 0.801 0 2.529 1.418 3.84 3.151 4.936 6.528 6.579 7.785 11.131 8.502 10.714 1.687 14.482 3.763 23.122 12.739 6.188 6.428 5.932 1.695 6.51 119.677 0.596 121.275-0.253 109.573 8.21 112.906 4.964 1.953 6.702 3.635 9.155 8.852l2.12 4.508h18.412l2.12-4.508c2.452-5.217 4.191-6.899 9.155-8.852 8.463-3.333 7.613 8.369 8.21-112.906 0.579-117.983 0.323-113.249 6.51-119.677 8.64-8.975 12.408-11.052 23.122-12.739 4.552-0.717 6.195-1.974 11.131-8.502 1.311-1.733 3.039-3.151 3.84-3.151 0.804 0 1.459-0.399 1.459-0.886 0-1.216 7.532-3.978 14.336-5.258 8.333-1.567 8.699-1.761 10.527-5.591 0.924-1.938 2.964-4.342 4.536-5.343s3.087-2.112 3.369-2.473c0.701-0.893 18.452-6.042 20.992-6.088 1.362-0.023 2.734-1.439 4.096-4.227 1.126-2.307 3.43-4.938 5.12-5.852 1.69-0.911 3.302-1.917 3.584-2.235 0.282-0.315 3.722-1.431 7.644-2.476 4.516-1.206 8.082-2.872 9.725-4.547 3.492-3.558 11.52-9.298 13.005-9.298 0.66 0 1.357-0.471 1.549-1.047 0.192-0.579 2.189-1.303 4.436-1.613 6.554-0.906 11.579-3.507 13.696-7.091 1.772-3.003 11.185-8.681 14.392-8.681 0.599 0 1.088-0.42 1.088-0.934s1.958-1.242 4.352-1.62c5.786-0.911 9.984-2.76 9.984-4.393 0-2.563 4.127-9.38 6.403-10.58 1.267-0.666 2.532-1.487 2.813-1.825s1.434-1.126 2.56-1.751c1.28-0.709 2.025-2.15 1.984-3.84-0.402-16.955-0.412-17.039-2.24-17.042-3.83-0.010-12.426-6.868-12.511-9.981-0.018-0.704-0.461-1.28-0.986-1.28s-1.101-1.037-1.28-2.304c-0.791-5.563-20.28-4.803-22.986 0.899-2.609 5.499-11.914 9.946-25.469 12.175-6.717 1.103-7.68 1.562-7.68 3.651 0 4.964-6.147 9.19-18.481 12.708-10.237 2.921-11.907 3.707-13.143 6.193-2.327 4.685-6.369 7.511-13.944 9.743-10.437 3.080-13.719 4.736-15.014 7.578-1.569 3.448-7.391 7.237-14.17 9.224-15.698 4.603-15.741 4.623-18.611 9.29-3.382 5.494-8.141 8.038-18.819 10.053-6.175 1.167-8.522 2.094-9.9 3.912-5.862 7.739-8.102 9.708-13.084 11.5-16.847 6.057-36.406 6.057-53.253 0-4.982-1.792-7.222-3.761-13.084-11.5-1.377-1.818-3.725-2.744-9.9-3.912-10.678-2.015-15.437-4.559-18.819-10.053-2.87-4.667-2.913-4.687-18.611-9.29-6.779-1.987-12.6-5.775-14.17-9.224-1.295-2.842-4.577-4.498-15.014-7.578-7.575-2.232-11.617-5.059-13.944-9.743-1.236-2.486-2.906-3.272-13.143-6.193-12.334-3.517-18.481-7.744-18.481-12.708 0-2.089-0.963-2.547-7.68-3.651-13.458-2.212-22.861-6.679-25.421-12.073-2.422-5.102-3.517-5.353-17.075-3.907zM387.584 554.977c-1.69 1.075-3.592 2.409-4.229 2.964-0.635 0.558-3.63 1.482-6.656 2.058-10.532 1.999-15.951 4.511-21.806 10.112-3.090 2.957-6.331 5.376-7.201 5.376-0.868 0-1.58 0.44-1.58 0.978s-1.728 1.267-3.84 1.623c-6.5 1.096-12.303 3.881-13.975 6.712-0.876 1.485-4.137 4.029-7.247 5.652-3.108 1.626-5.655 3.264-5.655 3.64-0.003 0.379-1.5 0.993-3.331 1.364-10.565 2.15-10.957 2.383-13.445 7.982-2.268 5.1-7.857 10.959-10.45 10.959-2.122 0-2.614 3.251-1.887 12.524 0.525 6.715 1.068 8.98 2.148 8.98 2.934 0 9.48 4.165 11.246 7.155 1.001 1.697 2.125 3.085 2.496 3.085s0.94 1.313 1.26 2.916c0.571 2.862 0.745 2.929 9.262 3.584 10.324 0.794 11.428 0.466 13.563-4.035 2.545-5.361 12.388-10.079 25.487-12.216 6.838-1.116 7.514-1.495 8.192-4.588 1.103-5.020 6.203-8.443 17.426-11.697 9.964-2.89 13.788-4.867 13.824-7.148 0.046-2.906 5.033-6.011 16.855-10.501 4.611-1.748 5.279-2.422 6.989-7.030 2.145-5.783 4.086-8.251 8.136-10.345 4.316-2.232 1.024-20.547-3.74-20.81-0.509-0.028-2.437-1.203-4.285-2.611-1.846-1.408-3.817-2.56-4.378-2.56-0.563 0-1.298-0.863-1.633-1.92-0.474-1.487-2.035-2.079-6.981-2.637-3.505-0.397-7.524-0.901-8.932-1.121s-3.942 0.479-5.632 1.551zM641.306 554.271c-5.78 0.794-7.532 1.434-8.005 2.924-0.333 1.050-1.068 1.91-1.631 1.91-0.561 0-2.532 1.152-4.378 2.56-1.848 1.408-3.776 2.583-4.285 2.611-4.764 0.264-8.056 18.578-3.74 20.81 4.050 2.094 5.99 4.562 8.136 10.345 1.71 4.608 2.378 5.281 6.989 7.030 11.822 4.49 16.809 7.596 16.855 10.501 0.036 2.281 3.86 4.257 13.824 7.148 11.223 3.254 16.323 6.676 17.426 11.697 0.678 3.092 1.354 3.471 8.192 4.588 13.1 2.138 22.943 6.856 25.487 12.216 2.132 4.498 3.238 4.828 13.527 4.037 8.133-0.625 8.676-0.814 9.285-3.238 1.226-4.884 7.89-11.707 12.813-13.115 4.756-1.362 7.153-21.893 2.552-21.893-2.673 0-8.238-5.786-10.54-10.959-2.488-5.599-2.88-5.832-13.445-7.982-1.83-0.371-3.328-0.986-3.331-1.364 0-0.376-2.547-2.015-5.655-3.64-3.11-1.623-6.372-4.168-7.247-5.652-1.672-2.831-7.475-5.617-13.975-6.712-2.112-0.356-3.84-1.085-3.84-1.623s-0.712-0.978-1.58-0.978c-0.87 0-4.111-2.419-7.201-5.376-5.875-5.619-11.272-8.113-21.939-10.138-3.098-0.586-5.862-1.39-6.144-1.782-0.94-1.313-8.292-5.235-9.531-5.084-0.671 0.082-4.552 0.604-8.62 1.162z"></path>
<path fill="#000" d="M520.893 245.514l-8 0.335-9.51 9.426c-5.233 5.187-10.271 10.614-11.2 12.065-4.746 7.411-5.353 103.050-0.73 114.944 2.107 5.417 8.548 14.003 10.506 14.003 0.435 0 3.080 1.408 5.875 3.126 9.108 5.606 26.552 4.47 40.005-2.609 6.963-3.663 8.246-12.58 8.901-61.957 0.893-67.348-0.988-75.96-18.588-85.112-2.276-1.183-4.367-2.501-4.649-2.926-0.858-1.298-4.239-1.646-12.611-1.295zM531.884 251.502c0.891 0.34 1.62 1.229 1.62 1.969 0 2.542 5.046 7.342 9.508 9.047 8.090 3.090 7.9 1.654 7.903 59.822 0.003 66.115-0.522 69.78-9.987 69.839-1.267 0.008-2.304 0.42-2.304 0.916 0 2.678-22.403 4.429-26.77 2.092-3.098-1.659-5.709-4.557-6.528-7.247-0.786-2.575-7.329-9.462-9.769-10.276-1.26-0.42-1.477-7.928-1.477-51.092 0-56.517-0.223-54.751 7.258-57.874 3.553-1.485 9.116-9.016 10.156-13.75 0.596-2.711 1.062-2.972 5.952-3.315 10.273-0.724 12.836-0.748 14.438-0.131zM302.080 368.765c-3.174 1.267-7.168 4.936-7.168 6.584 0 0.678-2.65 3.474-5.888 6.211-8.479 7.165-8.379 6.956-8.415 17.477-0.041 11.525 0.397 12.716 7.276 19.799 3.021 3.11 7.224 7.567 9.344 9.907 2.322 2.563 5.166 4.534 7.168 4.966 4.559 0.986 10.079 3.896 12.531 6.612 1.126 1.247 4.352 3.43 7.168 4.851s5.35 2.939 5.632 3.377c0.284 0.438 3.584 1.784 7.334 2.998 4.808 1.554 8.492 3.668 12.498 7.173 3.123 2.732 7.081 5.276 8.796 5.652 1.713 0.376 3.116 1.024 3.116 1.441 0 0.415 3.886 2.268 8.637 4.116 4.749 1.846 9.472 4.303 10.496 5.455 3.325 3.753 9.789 7.941 12.252 7.941 1.324 0 2.406 0.461 2.406 1.024s0.461 1.024 1.021 1.024c2.243 0 14.543 6.477 18.368 9.672 2.235 1.869 6.159 4.257 8.719 5.312 2.557 1.052 4.654 2.258 4.657 2.68 0 0.422 0.712 0.768 1.58 0.768 2.348 0 9.741 3.971 13.501 7.252 3.075 2.683 15.619 9.132 17.761 9.132 0.525 0 0.952 0.425 0.952 0.942 0 0.52 1.495 1.272 3.32 1.672 3.569 0.786 18.184 14.049 18.184 16.504 0 0.748 0.412 1.362 0.914 1.362 2.396 0 2.703 10.447 3.185 108.544 0.599 122.222-0.763 109.499 12.943 120.824 4.426 3.658 8.655 7.229 9.4 7.936 1.864 1.774 21.028 1.774 22.892 0 0.745-0.707 4.974-4.278 9.4-7.936 13.706-11.325 12.344 1.398 12.943-120.824 0.481-98.097 0.788-108.544 3.185-108.544 0.502 0 0.914-0.614 0.914-1.362 0-2.455 14.615-15.718 18.184-16.504 1.825-0.399 3.32-1.152 3.32-1.672 0-0.517 0.428-0.942 0.952-0.942 2.143 0 14.687-6.449 17.761-9.132 3.761-3.282 11.154-7.252 13.501-7.252 0.868 0 1.58-0.346 1.58-0.768 0.003-0.422 2.099-1.628 4.657-2.68 2.56-1.055 6.484-3.443 8.719-5.312 3.825-3.195 16.125-9.672 18.368-9.672 0.561 0 1.021-0.461 1.021-1.024s1.083-1.024 2.406-1.024c2.463 0 8.927-4.188 12.252-7.941 1.024-1.152 5.747-3.61 10.496-5.455 4.751-1.848 8.637-3.702 8.637-4.116 0-0.417 1.403-1.065 3.116-1.441 1.715-0.376 5.64-2.893 8.724-5.591 4.032-3.528 7.616-5.553 12.756-7.204 3.93-1.265 7.148-2.624 7.148-3.021s2.294-1.795 5.094-3.105c2.803-1.313 6.144-3.51 7.424-4.884 2.755-2.952 8.187-5.86 12.813-6.858 2.002-0.433 4.846-2.404 7.168-4.966 2.12-2.34 6.323-6.797 9.344-9.907 6.802-7.004 7.309-8.32 7.309-18.982 0-10.45-0.712-12.076-7.767-17.761-3.049-2.455-6.118-5.64-6.825-7.076-4.841-9.861-36.488-10.022-41.738-0.212-1.047 1.953-15.043 9.196-17.772 9.196-3.72 0-13.962 6.735-13.962 9.183 0 1.132-10.516 6.080-19.712 9.275-6.090 2.117-13.056 7.007-13.056 9.17 0 1.011-6.807 4.296-17.060 8.233-5.665 2.173-9.928 4.652-13.243 7.693-2.688 2.47-7.452 5.463-10.588 6.651-10.081 3.827-16.148 6.935-19.807 10.148-1.966 1.725-3.891 3.136-4.278 3.136-0.389 0-1.354 0.645-2.143 1.436-0.791 0.791-5.24 2.888-9.887 4.662-8.34 3.187-11.331 5.028-18.092 11.146-10.627 9.618-38.797 9.618-49.423 0-6.761-6.118-9.751-7.959-18.092-11.146-4.646-1.774-9.096-3.871-9.887-4.662-0.788-0.791-1.754-1.436-2.143-1.436-0.387 0-2.312-1.411-4.278-3.136-3.658-3.213-9.725-6.321-19.807-10.148-3.136-1.188-7.9-4.18-10.588-6.651-3.315-3.041-7.578-5.519-13.243-7.693-10.253-3.937-17.060-7.222-17.060-8.233 0-2.163-6.966-7.053-13.056-9.17-9.196-3.195-19.712-8.143-19.712-9.275 0-2.419-10.232-9.183-13.893-9.183-2.698 0-14.208-5.852-16.998-8.643-6.712-6.712-26.294-10.33-35.668-6.592zM322.993 372.337c0.893 0.34 2.394 2.24 3.331 4.216 2.56 5.394 11.963 9.861 25.421 12.073 6.717 1.103 7.68 1.562 7.68 3.651 0 4.964 6.147 9.19 18.481 12.708 10.237 2.921 11.907 3.707 13.143 6.193 2.327 4.685 6.369 7.511 13.944 9.743 10.437 3.080 13.719 4.736 15.014 7.578 1.569 3.448 7.391 7.237 14.17 9.224 15.698 4.603 15.741 4.623 18.611 9.29 3.382 5.494 8.141 8.038 18.819 10.053 6.175 1.167 8.522 2.094 9.9 3.912 5.862 7.739 8.102 9.708 13.084 11.5 16.847 6.057 36.406 6.057 53.253 0 4.982-1.792 7.222-3.761 13.084-11.5 1.377-1.818 3.725-2.744 9.9-3.912 10.678-2.015 15.437-4.559 18.819-10.053 2.87-4.667 2.913-4.687 18.611-9.29 6.779-1.987 12.6-5.775 14.17-9.224 1.295-2.842 4.577-4.498 15.014-7.578 7.575-2.232 11.617-5.059 13.944-9.743 1.236-2.486 2.906-3.272 13.143-6.193 12.334-3.517 18.481-7.744 18.481-12.708 0-2.089 0.963-2.547 7.68-3.651 13.555-2.23 22.861-6.676 25.469-12.175 2.706-5.701 22.195-6.461 22.986-0.899 0.179 1.267 0.755 2.304 1.28 2.304s0.968 0.576 0.986 1.28c0.084 3.113 8.681 9.971 12.511 9.981 1.828 0.003 1.838 0.087 2.24 17.042 0.041 1.69-0.704 3.131-1.984 3.84-1.126 0.625-2.278 1.413-2.56 1.751s-1.546 1.16-2.813 1.825c-2.276 1.201-6.403 8.018-6.403 10.58 0 1.633-4.198 3.482-9.984 4.393-2.394 0.379-4.352 1.106-4.352 1.62s-0.489 0.934-1.088 0.934c-3.208 0-12.621 5.678-14.392 8.681-2.117 3.584-7.142 6.185-13.696 7.091-2.248 0.31-4.244 1.034-4.436 1.613-0.192 0.576-0.888 1.047-1.549 1.047-1.485 0-9.513 5.74-13.005 9.298-1.644 1.674-5.21 3.341-9.725 4.547-3.922 1.044-7.363 2.161-7.644 2.476-0.282 0.317-1.894 1.324-3.584 2.235-1.69 0.914-3.994 3.546-5.12 5.852-1.362 2.788-2.734 4.204-4.096 4.227-2.54 0.046-20.291 5.194-20.992 6.088-0.282 0.361-1.797 1.472-3.369 2.473s-3.612 3.405-4.536 5.343c-1.828 3.83-2.194 4.024-10.527 5.591-6.804 1.28-14.336 4.042-14.336 5.258 0 0.486-0.655 0.886-1.459 0.886-0.801 0-2.529 1.418-3.84 3.151-4.936 6.528-6.579 7.785-11.131 8.502-10.714 1.687-14.482 3.763-23.122 12.739-6.188 6.428-5.932 1.695-6.51 119.677-0.596 121.275 0.253 109.573-8.21 112.906-4.964 1.953-6.702 3.635-9.155 8.852l-2.12 4.508h-18.412l-2.12-4.508c-2.452-5.217-4.191-6.899-9.155-8.852-8.463-3.333-7.613 8.369-8.21-112.906-0.579-117.983-0.323-113.249-6.51-119.677-8.64-8.975-12.408-11.052-23.122-12.739-4.552-0.717-6.195-1.974-11.131-8.502-1.311-1.733-3.039-3.151-3.84-3.151-0.804 0-1.459-0.399-1.459-0.886 0-1.216-7.532-3.978-14.336-5.258-8.333-1.567-8.699-1.761-10.527-5.591-0.924-1.938-2.964-4.342-4.536-5.343s-3.087-2.112-3.369-2.473c-0.701-0.893-18.452-6.042-20.992-6.088-1.362-0.023-2.734-1.439-4.096-4.227-1.126-2.307-3.43-4.938-5.12-5.852-1.69-0.911-3.302-1.917-3.584-2.235-0.282-0.315-3.722-1.431-7.644-2.476-4.516-1.206-8.082-2.872-9.725-4.547-3.579-3.645-11.535-9.298-13.092-9.298-0.704 0-1.283-0.44-1.283-0.978s-1.728-1.257-3.84-1.6c-7.603-1.236-12.339-3.564-14.418-7.084-1.823-3.090-11.18-8.771-14.446-8.771-0.599 0-1.088-0.42-1.088-0.934s-1.958-1.242-4.352-1.62c-5.786-0.911-9.984-2.76-9.984-4.393 0-2.749-4.278-9.562-6.697-10.665-1.385-0.632-2.519-1.536-2.519-2.007 0-0.474-0.635-0.86-1.411-0.86-5.197 0-4.577-20.925 0.653-22.075 3.441-0.755 10.998-7.13 10.998-9.277 0-0.778 0.428-1.416 0.952-1.416s1.101-1.037 1.28-2.304c0.384-2.693 14.897-5.061 19.704-3.215zM387.584 544.842c-1.126 0.655-3.661 2.253-5.632 3.548s-7.27 3.873-11.776 5.724c-4.506 1.851-8.422 3.663-8.704 4.029-0.282 0.364-2.191 1.211-4.242 1.879s-6.252 3.423-9.334 6.118c-4.068 3.561-7.606 5.55-12.91 7.255-4.019 1.29-7.306 2.673-7.306 3.069s-2.304 1.8-5.12 3.118c-2.816 1.318-5.12 2.79-5.12 3.269 0 1.262-8.899 6.712-13.212 8.095-3.497 1.119-6.141 3.502-18.020 16.236l-5.12 5.491-0.353 10.143c-0.433 12.413 0.266 14.185 8.125 20.544 3.328 2.693 6.052 5.55 6.052 6.349 0 10.706 32.143 9.987 44.467-0.996 3.5-3.118 13.028-7.69 16.028-7.69 2.314 0 8.991-4.193 12.895-8.095 3.154-3.154 7.002-5.299 15.821-8.819 9.39-3.748 12.518-5.545 16.113-9.247 2.452-2.529 6.963-5.745 10.028-7.145 6.364-2.911 13.414-9.679 16.74-16.077 1.252-2.406 2.803-4.71 3.446-5.117 0.771-0.486 1.093-4.132 0.947-10.703l-0.223-9.966-7.457-7.066c-14.769-13.99-14.7-13.952-24.973-14.579-6.029-0.369-9.805-0.154-11.159 0.632zM637.955 544.504c-3.876 0.466-7.468 3.133-19.238 14.285l-7.457 7.066-0.223 9.966c-0.146 6.572 0.177 10.217 0.947 10.703 0.643 0.407 2.199 2.719 3.456 5.138 3.22 6.19 10.655 13.279 16.95 16.156 2.941 1.347 7.355 4.516 9.807 7.045 3.594 3.702 6.723 5.499 16.113 9.247 8.809 3.517 12.669 5.668 15.811 8.809 4.782 4.782 8.061 6.653 15.419 8.799 6.195 1.807 12.424 5.253 16.691 9.236 9.915 9.252 41.29 8.305 41.29-1.244 0-0.799 2.724-3.656 6.052-6.349 7.859-6.359 8.558-8.128 8.125-20.552l-0.353-10.153-5.632-5.98c-3.098-3.292-7.475-7.91-9.728-10.266s-5.752-4.815-7.78-5.463c-4.314-1.382-13.212-6.833-13.212-8.095 0-0.479-2.304-1.951-5.12-3.269s-5.12-2.721-5.12-3.118c0-0.397-3.287-1.779-7.306-3.069-5.304-1.705-8.842-3.694-12.91-7.255-3.082-2.696-7.283-5.45-9.334-6.118s-3.96-1.516-4.242-1.882c-0.282-0.364-4.79-2.442-10.020-4.613-5.228-2.173-9.754-4.349-10.053-4.833-2.399-3.881-11.584-5.56-22.932-4.191zM402.148 554.547c4.946 0.558 6.508 1.149 6.981 2.637 0.335 1.057 1.070 1.92 1.633 1.92 0.561 0 2.532 1.152 4.378 2.56 1.848 1.408 3.776 2.583 4.285 2.611 4.764 0.264 8.056 18.578 3.74 20.81-4.050 2.094-5.99 4.562-8.136 10.345-1.71 4.608-2.378 5.281-6.989 7.030-11.822 4.49-16.809 7.596-16.855 10.501-0.036 2.281-3.86 4.257-13.824 7.148-11.223 3.254-16.323 6.676-17.426 11.697-0.678 3.092-1.354 3.471-8.192 4.588-13.1 2.138-22.943 6.856-25.487 12.216-2.135 4.5-3.238 4.828-13.563 4.035-8.517-0.655-8.691-0.722-9.262-3.584-0.32-1.603-0.888-2.916-1.26-2.916s-1.495-1.388-2.496-3.085c-1.766-2.99-8.312-7.155-11.246-7.155-1.080 0-1.623-2.266-2.148-8.98-0.727-9.272-0.236-12.524 1.887-12.524 2.593 0 8.182-5.86 10.45-10.959 2.488-5.599 2.88-5.832 13.445-7.982 1.83-0.371 3.328-0.986 3.331-1.364 0-0.376 2.547-2.015 5.655-3.64 3.11-1.623 6.372-4.168 7.247-5.652 1.672-2.831 7.475-5.617 13.975-6.712 2.112-0.356 3.84-1.085 3.84-1.623s0.712-0.978 1.58-0.978c0.87 0 4.111-2.419 7.201-5.376 5.855-5.601 11.274-8.113 21.806-10.112 3.026-0.576 6.021-1.5 6.656-2.058 3.348-2.929 7.59-4.872 9.861-4.516 1.408 0.22 5.427 0.724 8.932 1.121zM655.045 555.218c2.145 1.242 4.129 2.58 4.411 2.975 0.282 0.392 3.046 1.196 6.144 1.782 10.668 2.025 16.064 4.518 21.939 10.138 3.090 2.957 6.331 5.376 7.201 5.376 0.868 0 1.58 0.44 1.58 0.978s1.728 1.267 3.84 1.623c6.5 1.096 12.303 3.881 13.975 6.712 0.876 1.485 4.137 4.029 7.247 5.652 3.108 1.626 5.655 3.264 5.655 3.64 0.003 0.379 1.5 0.993 3.331 1.364 10.565 2.15 10.957 2.383 13.445 7.982 2.301 5.174 7.867 10.959 10.54 10.959 4.6 0 2.204 20.531-2.552 21.893-4.923 1.408-11.587 8.23-12.813 13.115-0.609 2.424-1.152 2.614-9.285 3.238-10.289 0.791-11.395 0.461-13.527-4.037-2.545-5.361-12.388-10.079-25.487-12.216-6.838-1.116-7.514-1.495-8.192-4.588-1.103-5.020-6.203-8.443-17.426-11.697-9.964-2.89-13.788-4.867-13.824-7.148-0.046-2.906-5.033-6.011-16.855-10.501-4.611-1.748-5.279-2.422-6.989-7.030-2.145-5.783-4.086-8.251-8.136-10.345-4.316-2.232-1.024-20.547 3.74-20.81 0.509-0.028 2.437-1.203 4.285-2.611 1.846-1.408 3.817-2.56 4.378-2.56 0.563 0 1.298-0.86 1.631-1.91 0.571-1.797 3.272-2.463 16.625-4.086 0.673-0.082 2.977 0.868 5.12 2.109z"></path>
</svg>
