<?xml version="1.0" encoding="UTF-8"?>
<svg width="30px" height="34px" viewBox="0 0 30 34" version="1.1" xmlns="http://www.w3.org/2000/svg" xmlns:xlink="http://www.w3.org/1999/xlink">
    <title>Icon_Spark_White</title>
    <g id="Symbols" stroke="none" stroke-width="1" fill="none" fill-rule="evenodd">
        <g id="Account_Spark_Top" transform="translate(-72.000000, -69.757387)" fill="#979797" fill-rule="nonzero">
            <g id="Combined-Shape" transform="translate(71.242613, 70.242613)">
                <path d="M29.6168546,7.97138875 L29.7040352,8.11190206 C30.3119439,9.17471685 29.9534253,10.5346996 28.903043,11.1503371 L18.7985172,17.050668 C18.1191234,17.4487854 17.7008388,18.1827705 17.7007895,18.9769064 L17.7007895,30.7775682 C17.6997656,31.9519209 16.7990949,32.9130639 15.6584264,32.9944216 L15.5014551,33 C14.2878674,33 13.3040602,32.0049834 13.3040602,30.7775682 L13.3040602,18.9769064 C13.3040097,18.1822582 12.8848257,17.4479921 12.204393,17.050668 L2.0998672,11.1503371 C1.09588637,10.5639653 0.721925863,9.29786599 1.21815994,8.25871102 L1.29499615,8.11190206 C1.58629568,7.60119085 2.06630926,7.22848052 2.62938205,7.07580761 C3.19245484,6.92313469 3.79243502,7.00301289 4.29726215,7.29786039 L14.4017879,13.1962298 C15.0813411,13.5944468 15.9196296,13.5944468 16.5991829,13.1962298 L26.7037086,7.29786039 C27.7067841,6.71304143 28.9759936,7.01844719 29.6168546,7.97138875 Z M23.8623921,18.9659167 L28.8758959,21.8616313 C29.9333512,22.4723995 30.2954626,23.8247619 29.6846944,24.8822172 C29.0739262,25.9396725 27.7215638,26.301784 26.6641085,25.6910157 L21.6506047,22.7953012 C20.5931494,22.184533 20.2310379,20.8321706 20.8418062,19.7747152 C21.4525744,18.7172599 22.8049368,18.3551485 23.8623921,18.9659167 Z M9.95216032,19.7726837 C10.5629285,20.830139 10.2008171,22.1825014 9.14336178,22.7932696 L4.12647961,25.6909355 C3.06902429,26.3017037 1.71666191,25.9395922 1.10589369,24.8821369 C0.49512547,23.8246816 0.857236912,22.4723192 1.91469223,21.861551 L6.9315744,18.9638851 C7.98902972,18.3531169 9.3413921,18.7152283 9.95216032,19.7726837 Z M15.5,0 C16.8807119,-2.53632657e-16 18,1.11928813 18,2.5 L18,7.5 C18,8.88071187 16.8807119,10 15.5,10 C14.1192881,10 13,8.88071187 13,7.5 L13,2.5 C13,1.11928813 14.1192881,2.53632657e-16 15.5,0 Z"></path>
            </g>
        </g>
    </g>
</svg>