<!-- Generated by IcoMoon.io -->
<svg version="1.1" xmlns="http://www.w3.org/2000/svg" width="38" height="32" viewBox="0 0 38 32">
<title>telegram</title>
<path fill="#3e3e3e" d="M36.25 3.6l-16.442 20.096 0.942 0.613-4.509 4.73c-0.472 0.495-0.845 0.912-1.691 0.912l0.146-0.008-0.005 0.008-0.090-0.003-0.051 0.003v-0.005l-0.062-0c-0.939-0.049-0.789-0.467-1.165-1.429l-3.423-10.435 26.35-14.481z"></path>
<path fill="#606b70" d="M15.173 20.958l13.786 10.12c1.573 0.862 2.708 0.416 3.1-1.451l5.612-26.274c0.574-2.289-0.878-3.327-2.383-2.648l-32.952 12.624c-2.249 0.896-2.236 2.143-0.41 2.699l8.456 2.622 21.217-10.4c0.924-0.557 0.132-2.129-0.564-1.515z"></path>
</svg>
