<?xml version="1.0" encoding="UTF-8"?>
<svg width="23px" height="23px" viewBox="0 0 23 23" version="1.1" xmlns="http://www.w3.org/2000/svg" xmlns:xlink="http://www.w3.org/1999/xlink">
    <title>Combined Shape</title>
    <g id="Predictor" stroke="none" stroke-width="1" fill="none" fill-rule="evenodd">
        <g id="Mooncaster_Default_Wallet_Connected-Copy" transform="translate(-542.000000, -57.000000)" fill="#FFFFFF">
            <path d="M556,73 C556.552285,73 557,73.4477153 557,74 L557,79 C557,79.5522847 556.552285,80 556,80 L551,80 C550.447715,80 550,79.5522847 550,79 L550,74 C550,73.4477153 550.447715,73 551,73 L556,73 Z M556,65 C556.552285,65 557,65.4477153 557,66 L557,71 C557,71.5522847 556.552285,72 556,72 L551,72 C550.447715,72 550,71.5522847 550,71 L550,66 C550,65.4477153 550.447715,65 551,65 L556,65 Z M556,57 C556.552285,57 557,57.4477153 557,58 L557,63 C557,63.5522847 556.552285,64 556,64 L551,64 C550.447715,64 550,63.5522847 550,63 L550,58 C550,57.4477153 550.447715,57 551,57 L556,57 Z M548,57 C548.552285,57 549,57.4477153 549,58 L549,63 C549,63.5522847 548.552285,64 548,64 L543,64 C542.447715,64 542,63.5522847 542,63 L542,58 C542,57.4477153 542.447715,57 543,57 L548,57 Z M564,57 C564.552285,57 565,57.4477153 565,58 L565,63 C565,63.5522847 564.552285,64 564,64 L559,64 C558.447715,64 558,63.5522847 558,63 L558,58 C558,57.4477153 558.447715,57 559,57 L564,57 Z" id="Combined-Shape"></path>
        </g>
    </g>
</svg>