<!-- Generated by IcoMoon.io -->
<svg version="1.1" xmlns="http://www.w3.org/2000/svg" width="32" height="32" viewBox="0 0 32 32">
<title>totem</title>
<path fill="#909090" d="M19.207 21.772c0.708 0 1.283 0.574 1.283 1.283v6.413c0 0.708-0.574 1.283-1.283 1.283h-6.413c-0.708 0-1.283-0.574-1.283-1.283v-6.413c0-0.708 0.574-1.283 1.283-1.283h6.413zM19.207 11.511c0.708 0 1.283 0.574 1.283 1.283v6.413c0 0.708-0.574 1.283-1.283 1.283h-6.413c-0.708 0-1.283-0.574-1.283-1.283v-6.413c0-0.708 0.574-1.283 1.283-1.283h6.413zM19.207 1.25c0.708 0 1.283 0.574 1.283 1.283v6.413c0 0.708-0.574 1.283-1.283 1.283h-6.413c-0.708 0-1.283-0.574-1.283-1.283v-6.413c0-0.708 0.574-1.283 1.283-1.283h6.413zM8.946 1.25c0.708 0 1.283 0.574 1.283 1.283v6.413c0 0.708-0.574 1.283-1.283 1.283h-6.413c-0.708 0-1.283-0.574-1.283-1.283v-6.413c0-0.708 0.574-1.283 1.283-1.283h6.413zM29.467 1.25c0.708 0 1.283 0.574 1.283 1.283v6.413c0 0.708-0.574 1.283-1.283 1.283h-6.413c-0.708 0-1.283-0.574-1.283-1.283v-6.413c0-0.708 0.574-1.283 1.283-1.283h6.413z"></path>
</svg>
