<!-- Generated by IcoMoon.io -->
<svg version="1.1" xmlns="http://www.w3.org/2000/svg" width="38" height="32" viewBox="0 0 38 32">
<title>twitter</title>
<path fill="#606b70" d="M37.785 4.473c-1.368 0.607-2.837 1.016-4.38 1.2 1.575-0.943 2.785-2.438 3.353-4.219-1.473 0.873-3.105 1.508-4.843 1.851-1.389-1.482-3.373-2.408-5.566-2.408-4.923 0-8.541 4.594-7.429 9.362-6.336-0.318-11.955-3.353-15.716-7.967-1.998 3.427-1.036 7.911 2.359 10.181-1.248-0.040-2.425-0.383-3.452-0.954-0.084 3.533 2.449 6.838 6.116 7.573-1.073 0.291-2.249 0.359-3.444 0.13 0.969 3.029 3.785 5.233 7.124 5.295-3.206 2.514-7.245 3.636-11.29 3.159 3.375 2.164 7.384 3.426 11.69 3.426 14.158 0 22.158-11.958 21.674-22.683 1.49-1.076 2.783-2.419 3.805-3.948z"></path>
</svg>
