<!-- Generated by IcoMoon.io -->
<svg version="1.1" xmlns="http://www.w3.org/2000/svg" width="32" height="32" viewBox="0 0 32 32">
<title>website</title>
<path fill="#606b70" d="M11.43 25.604c0.906 1.981 2.108 3.943 3.607 5.882-4.556-0.273-8.582-2.513-11.241-5.882l7.634-0zM28.17 25.605c-2.652 3.36-6.664 5.597-11.206 5.881 1.499-1.94 2.7-3.901 3.606-5.881l7.6 0zM16.13 30.14l-0.132 0.171c-1.18-1.558-2.158-3.127-2.934-4.707h5.87c-0.641 1.305-1.419 2.602-2.335 3.891l-0.47 0.644zM9.353 16.738c0.043 2.491 0.529 4.954 1.457 7.388l-8.048 0.001c-1.335-2.167-2.153-4.688-2.279-7.389h8.87zM19.601 24.127h-7.201c-0.998-2.435-1.521-4.897-1.568-7.39h10.338c-0.047 2.493-0.57 4.955-1.568 7.39zM31.482 16.738c-0.127 2.701-0.944 5.222-2.279 7.389l-8.013-0.001c0.928-2.434 1.414-4.898 1.457-7.388h8.835zM11.023 7.871c-0.968 2.487-1.516 4.95-1.644 7.389l-8.896 0c0.127-2.701 0.944-5.222 2.279-7.389l8.261-0zM21.141 15.26h-10.283c0.136-2.433 0.721-4.895 1.755-7.389h6.773c1.034 2.494 1.619 4.956 1.755 7.389zM29.203 7.871c1.335 2.167 2.153 4.688 2.279 7.389l-8.861-0c-0.128-2.439-0.676-4.902-1.644-7.389l8.226 0zM15.071 0.509c-1.397 1.974-2.539 3.936-3.424 5.884l-7.851 0c2.599-3.293 6.505-5.508 10.935-5.862l0.34-0.023zM18.723 6.393h-5.446c0.74-1.531 1.647-3.075 2.721-4.631 1.078 1.556 1.985 3.1 2.725 4.631zM16.93 0.511c4.556 0.274 8.581 2.514 11.24 5.883l-7.817-0c-0.768-1.69-1.729-3.39-2.882-5.1l-0.541-0.782z"></path>
</svg>
