<!-- Generated by IcoMoon.io -->
<svg version="1.1" xmlns="http://www.w3.org/2000/svg" width="32" height="32" viewBox="0 0 32 32">
<title>whitepaper</title>
<path fill="#606b70" d="M25.435 0.5c1.489 0 2.696 1.207 2.696 2.696v22.913h-2.022l-0.222 0.007c-1.758 0.114-3.148 1.576-3.148 3.362v0 2.022h-16.174c-1.489 0-2.696-1.207-2.696-2.696v-25.609c0-1.489 1.207-2.696 2.696-2.696h18.87zM28.13 27.456l-4.043 4.043v-2.022l0.009-0.195c0.098-1.025 0.962-1.827 2.012-1.827v0h2.022zM16.674 23.413h-8.087l-0.121 0.011c-0.314 0.057-0.553 0.332-0.553 0.663s0.238 0.606 0.553 0.663l0.121 0.011h8.087l0.121-0.011c0.314-0.057 0.553-0.332 0.553-0.663 0-0.372-0.302-0.674-0.674-0.674zM23.413 19.37l-14.947 0.011c-0.314 0.057-0.553 0.332-0.553 0.663s0.238 0.606 0.553 0.663l0.121 0.011 14.947-0.011c0.314-0.057 0.553-0.332 0.553-0.663 0-0.372-0.302-0.674-0.674-0.674zM23.413 15.326l-14.947 0.011c-0.314 0.057-0.553 0.332-0.553 0.663s0.238 0.606 0.553 0.663l0.121 0.011 14.947-0.011c0.314-0.057 0.553-0.332 0.553-0.663 0-0.372-0.302-0.674-0.674-0.674zM23.413 11.283l-14.947 0.011c-0.314 0.057-0.553 0.332-0.553 0.663s0.238 0.606 0.553 0.663l0.121 0.011 14.947-0.011c0.314-0.057 0.553-0.332 0.553-0.663 0-0.372-0.302-0.674-0.674-0.674zM23.413 7.239l-14.947 0.011c-0.314 0.057-0.553 0.332-0.553 0.663s0.238 0.606 0.553 0.663l0.121 0.011 14.947-0.011c0.314-0.057 0.553-0.332 0.553-0.663 0-0.372-0.302-0.674-0.674-0.674z"></path>
</svg>
